<?xml version="1.0" encoding="UTF-8" standalone="no"?>
<!DOCTYPE svg PUBLIC "-//W3C//DTD SVG 1.1//EN" "http://www.w3.org/Graphics/SVG/1.1/DTD/svg11.dtd">
<svg width="100%" height="100%" viewBox="0 0 5556 5556" version="1.1" xmlns="http://www.w3.org/2000/svg" xmlns:xlink="http://www.w3.org/1999/xlink" xml:space="preserve" xmlns:serif="http://www.serif.com/" style="fill-rule:evenodd;clip-rule:evenodd;stroke-linejoin:round;stroke-miterlimit:2;">
    <g transform="matrix(6.12323e-17,-1,1,6.12323e-17,91.444,5375.65)">
        <g id="Base">
            <g transform="matrix(1.81339,0,0,1.03479,-2667.58,-437.795)">
                <g transform="matrix(4033.39,0,0,4033.39,2438.5,4462.69)">
                </g>
                <text x="1317.89px" y="4462.69px" style="font-family:'ArialMT', 'Arial', sans-serif;font-size:4033.39px;fill:white;">I</text>
            </g>
            <path d="M750.909,2703.24C750.851,2697.62 750.822,2691.98 750.822,2686.33C750.822,2632.56 753.453,2579.45 758.584,2527.14C789.902,2141.2 915.983,1831.89 1136.83,1599.21C1391.51,1330.89 1719.48,1195.34 2120.75,1192.57C2124.29,1192.54 2127.84,1192.52 2131.39,1192.52C2131.69,1192.52 2131.99,1192.52 2132.29,1192.52C2132.65,1192.52 2133.01,1192.52 2133.36,1192.52C2399.89,1192.52 2640.16,1256.2 2854.17,1383.56C3068.18,1510.91 3231.32,1688.49 3343.58,1916.29C3451.16,2134.6 3507.19,2380.96 3511.67,2655.35C3511.87,2665.65 3511.96,2675.98 3511.96,2686.33C3511.96,2687.09 3511.96,2687.85 3511.96,2688.61C3511.96,2689.49 3511.96,2690.38 3511.96,2691.26C3511.96,2984.05 3452.88,3245.98 3334.71,3477.06C3216.55,3708.14 3049.15,3883.09 2832.51,4001.91C2615.87,4120.73 2382.17,4180.15 2131.39,4180.15C1859.61,4180.15 1616.71,4114.5 1402.7,3983.2C1188.69,3851.91 1026.54,3672.69 916.254,3445.55C805.966,3218.41 750.822,2978.14 750.822,2724.74C750.822,2717.55 750.851,2710.39 750.909,2703.24ZM2131.39,1758.52C1658.13,1758.52 1273.91,2174.26 1273.91,2686.33C1273.91,3198.41 1658.13,3614.15 2131.39,3614.15C2604.65,3614.15 2988.88,3198.41 2988.88,2686.33C2988.88,2174.26 2604.65,1758.52 2131.39,1758.52Z" style="fill:white;"/>
            <g transform="matrix(6.51186e-17,1.21304,-0.888878,4.92666e-17,5801.52,-1628.06)">
                <path d="M2990.38,1136.46C2581.77,1408.82 2325.22,1951.67 2325.22,2543.93C2325.22,3418.72 2877.03,4128.94 3556.69,4128.94C4236.35,4128.94 4788.15,3418.72 4788.15,2543.93C4788.15,1951.67 4531.61,1408.82 4122.99,1136.46L3839.84,1840.2C4044.15,1976.38 4172.42,2247.8 4172.42,2543.93C4172.42,2981.33 3896.52,3336.44 3556.69,3336.44C3216.86,3336.44 2940.96,2981.33 2940.96,2543.93C2940.96,2247.8 3069.23,1976.38 3273.54,1840.2L2990.38,1136.46Z" style="fill:white;"/>
            </g>
        </g>
    </g>
</svg>
